<svg width="31" height="30" viewBox="0 0 31 30" fill="none" xmlns="http://www.w3.org/2000/svg">
<path d="M12.7393 0.745117V7.54102C12.7391 10.4127 10.4108 12.7411 7.53906 12.7412H0.743164V0.745117H12.7393Z" stroke="#3A86FF" stroke-width="1.48571"/>
<path d="M17.2725 29.083V22.2871C17.2726 19.4154 19.601 17.087 22.4727 17.0869H29.2686V29.083H17.2725Z" stroke="#3A86FF" stroke-width="1.48571"/>
<path d="M27.7832 0C29.0139 0.000127833 30.0117 0.997814 30.0117 2.22852V11.2529C30.0117 12.4837 29.0139 13.4813 27.7832 13.4814H20.8057C18.7677 13.702 16.7165 14.1956 15.3301 15.2295C14.161 16.1016 13.6707 18.3646 13.4814 20.6553V27.7061C13.4814 28.9369 12.4837 29.9346 11.2529 29.9346H2.22852C0.997736 29.9345 0 28.9368 0 27.7061V18.6816C3.04329e-05 17.4509 0.997754 16.4532 2.22852 16.4531H7.33496C9.7028 16.2588 12.4436 15.6513 14.2773 13.9277C15.951 12.3543 16.4174 9.22977 16.5303 6.8916V2.22852C16.5303 0.997736 17.528 0 18.7588 0H27.7832Z" fill="url(#paint0_linear_3603_23)"/>
<defs>
<linearGradient id="paint0_linear_3603_23" x1="15.0059" y1="0" x2="15.0059" y2="29.9346" gradientUnits="userSpaceOnUse">
<stop stop-color="#00C48C"/>
<stop offset="1" stop-color="#3A86FF"/>
</linearGradient>
</defs>
</svg>
